<?xml version="1.0" encoding="utf-8"?>
<!-- Generator: Adobe Illustrator 25.3.1, SVG Export Plug-In . SVG Version: 6.00 Build 0)  -->
<svg version="1.1" id="Layer_1" xmlns="http://www.w3.org/2000/svg" xmlns:xlink="http://www.w3.org/1999/xlink" x="0px" y="0px"
	 viewBox="0 0 64 64" style="enable-background:new 0 0 64 64;" xml:space="preserve">
<style type="text/css">
	.st0{fill:#FFCB29;}
</style>
<path class="st0" d="M48,32.7v-1.4c0-1.4-1.1-2.5-2.5-2.5h-7.8c-1.4,0-2.5-1.1-2.5-2.5v-7.8c0-1.4-1.1-2.5-2.5-2.5h-1.4
	c-1.4,0-2.5,1.1-2.5,2.5v7.8c0,1.4-1.1,2.5-2.5,2.5h-7.8c-1.4,0-2.5,1.1-2.5,2.5v1.4c0,1.4,1.1,2.5,2.5,2.5h7.8
	c1.4,0,2.5,1.1,2.5,2.5v7.8c0,1.4,1.1,2.5,2.5,2.5h1.4c1.4,0,2.5-1.1,2.5-2.5v-7.8c0-1.4,1.1-2.5,2.5-2.5h7.8
	C46.9,35.2,48,34.1,48,32.7z"/>
</svg>
